<?xml version="1.0" encoding="UTF-8" standalone="no"?>
<!-- Created with Inkscape (http://www.inkscape.org/) -->

<svg
   width="210mm"
   height="297mm"
   viewBox="0 0 210 297"
   version="1.1"
   id="svg5"
   inkscape:version="1.2.2 (732a01da63, 2022-12-09)"
   sodipodi:docname="DialogueBox.svg"
   inkscape:export-filename="OneDrive\Desktop\GameDev\UnityProjects\MomoNightmare\MomoNightmare\Unity3D\Assets\Icons\Raw\DialogueBox.png"
   inkscape:export-xdpi="92.36364"
   inkscape:export-ydpi="92.36364"
   xmlns:inkscape="http://www.inkscape.org/namespaces/inkscape"
   xmlns:sodipodi="http://sodipodi.sourceforge.net/DTD/sodipodi-0.dtd"
   xmlns="http://www.w3.org/2000/svg"
   xmlns:svg="http://www.w3.org/2000/svg">
  <sodipodi:namedview
     id="namedview7"
     pagecolor="#505050"
     bordercolor="#eeeeee"
     borderopacity="1"
     inkscape:showpageshadow="0"
     inkscape:pageopacity="0"
     inkscape:pagecheckerboard="0"
     inkscape:deskcolor="#505050"
     inkscape:document-units="mm"
     showgrid="false"
     inkscape:zoom="1.1893044"
     inkscape:cx="258.5545"
     inkscape:cy="514.1661"
     inkscape:window-width="1920"
     inkscape:window-height="991"
     inkscape:window-x="-9"
     inkscape:window-y="-9"
     inkscape:window-maximized="1"
     inkscape:current-layer="layer1" />
  <defs
     id="defs2" />
  <g
     inkscape:label="Layer 1"
     inkscape:groupmode="layer"
     id="layer1">
    <rect
       style="fill:#160011;fill-opacity:0.419075;stroke-width:0.264583"
       id="rect950-58"
       width="172.63593"
       height="48.053299"
       x="31.136818"
       y="114.18668"
       rx="5.8387198" />
    <rect
       style="fill:#160011;fill-opacity:0.419075;stroke-width:0.23364"
       id="rect954-3-9"
       width="52.947617"
       height="10.233573"
       x="32.697281"
       y="102.57607"
       rx="5.3446741" />
    <path
       style="fill:#4cbb00;fill-opacity:1;stroke-width:0.111235"
       d="m 32.497875,163.4322 c -0.587602,-0.0701 -1.778518,-0.79043 -2.520794,-1.52464 -0.859628,-0.85029 -1.483974,-1.87637 -1.609174,-2.64458 -0.141923,-0.8708 -0.168918,-5.02649 -0.155202,-23.89061 0.0088,-12.1229 0.04899,-17.30773 0.138538,-17.87875 0.180425,-1.15054 0.622948,-1.88538 1.847292,-3.06752 0.805775,-0.77801 1.760312,-1.26293 2.671257,-1.35703 1.025816,-0.10596 162.257238,-0.19031 166.239938,-0.087 l 3.50389,0.0909 0.80363,0.47443 c 1.63038,0.96249 2.64417,2.21235 2.9058,3.58246 0.15348,0.80371 0.22304,6.68454 0.30738,25.98573 l 0.0696,15.91901 -0.52478,1.01604 c -0.8851,1.71374 -2.50573,3.12372 -3.85214,3.35147 -0.57393,0.0971 -169.013884,0.12688 -169.825205,0.03 z m 167.856935,-1.60397 c 1.54893,-0.80584 2.56967,-1.93419 3.11458,-3.44294 l 0.25658,-0.71041 0.0315,-18.96547 c 0.0201,-12.10839 -0.008,-19.22249 -0.0785,-19.6763 -0.27247,-1.7611 -1.59445,-3.47618 -3.41754,-4.43378 l -0.90001,-0.47275 h -81.8813 -81.881294 l -0.975198,0.47216 c -0.779024,0.37718 -1.154338,0.65128 -1.865731,1.36262 -0.961184,0.96111 -1.42762,1.75234 -1.614773,2.73919 -0.06817,0.35944 -0.108702,7.78608 -0.108702,19.91527 v 19.34209 l 0.434549,0.86428 c 0.239001,0.47535 0.635495,1.11849 0.881097,1.42919 0.6398,0.80941 2.114402,1.75054 3.078115,1.96453 0.122359,0.0272 37.080716,0.0552 82.129687,0.0623 l 81.90721,0.0129 z"
       id="path1081" />
    <path
       style="fill:#c3ff9b;fill-opacity:1;stroke-width:0.222469"
       d="m 35.095108,113.45492 c -1.794227,-0.30775 -3.587385,-1.7402 -4.29151,-3.42823 -0.511739,-1.22682 -0.479449,-3.60929 0.06551,-4.83364 0.5279,-1.18602 2.128131,-2.69281 3.298595,-3.10598 0.720876,-0.25446 5.035142,-0.30751 25.009041,-0.30751 22.724031,0 24.198761,0.0235 25.177061,0.40102 1.17817,0.45465 2.70981,1.98031 3.22433,3.21175 0.43095,1.0314 0.4335,3.5278 0.005,4.55418 -0.48036,1.14964 -1.80242,2.51891 -3.00311,3.11035 l -1.04258,0.51355 -23.692947,0.0328 c -13.031121,0.018 -24.168192,-0.0487 -24.749048,-0.14832 z m 47.392407,-1.00813 c 1.93291,-0.80619 3.16304,-2.66198 3.16304,-4.77181 0,-1.55739 -0.45908,-2.62776 -1.59341,-3.71508 -1.54941,-1.48521 -0.0681,-1.40221 -24.92887,-1.39682 -21.378907,0.005 -22.577673,0.0258 -23.422004,0.4131 -1.907045,0.87482 -3.00333,2.58999 -3.00333,4.6988 0,1.55755 0.45925,2.62818 1.593403,3.71461 1.533162,1.46866 0.02254,1.38389 24.831931,1.39347 19.86513,0.008 22.63003,-0.0321 23.35924,-0.33627 z"
       id="path5063" />
    <path
       style="fill:#c3ff9b;fill-opacity:1;stroke-width:0.840828"
       d="m 117.22616,614.38569 c -2.22016,-1.52998 -5.24736,-4.53866 -6.72713,-6.68594 -2.67467,-3.8812 -2.69401,-3.98473 -3.28921,-17.60828 -0.3293,-7.53727 -0.44977,-43.59555 -0.26771,-80.12951 0.37273,-74.79637 -0.10514,-69.57596 7.00121,-76.48255 5.18778,-5.04194 8.87476,-6.119 16.48135,-4.81462 4.24426,0.72781 30.19331,0.99813 95.81532,0.99813 78.82912,0 90.30097,-0.15838 92.4632,-1.27651 2.19233,-1.13369 27.32781,-1.25128 224.66943,-1.05103 l 222.20094,0.22547 3.07184,1.91022 c 3.7269,2.31756 8.85326,7.86066 10.13266,10.95636 0.65123,1.57577 1.12261,26.39972 1.54389,81.30611 0.59351,77.35277 0.57145,79.10681 -1.03471,82.27449 -2.21955,4.37743 -7.69041,10.18062 -11.14144,11.81825 -2.57196,1.22047 -31.8157,1.3412 -324.8547,1.3412 H 121.2628 Z m 641.24595,-2.95658 c 4.45491,-2.83047 8.97227,-7.79688 10.56994,-11.62064 0.95145,-2.27715 1.1546,-15.90445 1.14784,-76.99688 l -0.008,-74.23005 -1.96192,-4.20414 c -2.02982,-4.35008 -6.97744,-9.44596 -11.38272,-11.72402 -2.27722,-1.17759 -33.66527,-1.30881 -313.08551,-1.30881 H 133.19679 l -4.55294,2.73269 c -5.15711,3.09531 -9.60449,8.42666 -10.88963,13.05407 -0.56881,2.04809 -0.86869,28.59143 -0.8666,76.70428 l 0.003,73.57242 2.46515,4.298 c 2.79868,4.87951 6.49522,8.29548 11.39272,10.52803 3.2351,1.47473 15.19238,1.53388 313.67429,1.55165 l 310.31099,0.0185 3.73813,-2.37506 z"
       id="path18037"
       transform="scale(0.26458333)" />
  </g>
</svg>
